<!-- icon666.com - MILLIONS vector ICONS FREE --><svg id="Layer_1" viewBox="0 0 512 512" xmlns="http://www.w3.org/2000/svg" data-name="Layer 1"><g fill-rule="evenodd"><path d="m24.917 277.617 160.278 160.278c11.89 11.89 31.345 11.89 43.235 0l160.278-160.278c11.89-11.89 11.89-31.345 0-43.235l-160.278-160.277c-11.89-11.89-31.345-11.89-43.235 0l-160.278 160.278c-11.89 11.89-11.89 31.345 0 43.235z" fill="#a3b7ff"></path><path d="m214.813 445.76c4.998-1.341 9.715-3.962 13.617-7.865l160.278-160.278c11.89-11.89 11.89-31.345 0-43.235l-160.278-160.277c-3.903-3.903-8.62-6.524-13.617-7.865-4.997 1.341-9.715 3.962-13.617 7.865l-160.278 160.278c-11.89 11.89-11.89 31.345 0 43.235l160.278 160.278c3.902 3.902 8.62 6.524 13.617 7.865z" fill="#c2cefc"></path><path d="m123.292 277.617 160.278 160.278c11.89 11.89 31.345 11.89 43.235 0l160.278-160.278c11.89-11.89 11.89-31.345 0-43.235l-160.278-160.277c-11.89-11.89-31.345-11.89-43.235 0l-160.278 160.278c-11.89 11.89-11.89 31.345 0 43.235z" fill="#335fff"></path><path d="m313.188 445.76c4.997-1.341 9.715-3.962 13.617-7.865l160.278-160.278c11.89-11.89 11.89-31.345 0-43.235l-160.278-160.277c-3.903-3.903-8.62-6.524-13.617-7.865-4.998 1.341-9.715 3.962-13.617 7.865l-160.279 160.278c-11.89 11.89-11.89 31.345 0 43.235l160.278 160.278c3.902 3.902 8.62 6.524 13.617 7.865z" fill="#466ffd"></path></g></svg>