<!-- icon666.com - MILLIONS vector ICONS FREE --><svg id="Layer_1" viewBox="0 0 512 512" xmlns="http://www.w3.org/2000/svg" data-name="Layer 1"><g fill-rule="evenodd"><path d="m360.727 85.268a46.994 46.994 0 1 0 -66.459 66.459l57.258 57.273h-198.963a47 47 0 0 0 0 94h198.963l-57.258 57.27a46.994 46.994 0 1 0 66.459 66.459l137.5-137.5a46.979 46.979 0 0 0 0-66.459l-137.5-137.5zm-360.727-38.268a47 47 0 0 1 47-47h116.6a47 47 0 0 1 0 94h-69.6v324h69.6a47 47 0 1 1 0 94h-116.6a47 47 0 0 1 -47-47z" fill="#e53b3b"></path><path d="m349.415 96.582a30.994 30.994 0 1 0 -43.831 43.833l84.564 84.585h-237.584a31 31 0 0 0 0 62h237.584l-84.564 84.584a30.994 30.994 0 1 0 43.831 43.833l137.505-137.5a30.984 30.984 0 0 0 0-43.832l-137.5-137.5zm-333.415-49.582a30.988 30.988 0 0 1 31-31h116.6a31 31 0 0 1 0 62h-85.6v356h85.6a31 31 0 0 1 0 62h-116.6a30.988 30.988 0 0 1 -31-31z" fill="#ff5b5b"></path></g></svg>