<!-- icon666.com - MILLIONS vector ICONS FREE --><svg xmlns="http://www.w3.org/2000/svg" viewBox="0 0 64 64"><title>19 Security</title><g id="_19_Security" data-name="19 Security"><path d="M32,32V61h1.571a50.653,50.653,0,0,0,21.1-29Z" style="fill: rgb(52, 90, 213);" fill="#4370ff"></path><path d="M32,3H30.986L7.5,17.754v.832A50.672,50.672,0,0,0,9.325,32H32Z" style="fill: rgb(52, 90, 213);" fill="#4370ff"></path><path d="M58.5,16.648,38,3.77V8.494L54.5,18.859A48.555,48.555,0,0,1,53.1,30H34V1H30.41L5.5,16.648v1.938A52.828,52.828,0,0,0,26,60.289V55.117A48.639,48.639,0,0,1,12.031,34H30V63h4.167c.1-.1,24.333-14.819,24.333-44.414ZM10.874,30A48.518,48.518,0,0,1,9.5,18.859L30,5.981V30ZM34,58.288V34H51.978A48.617,48.617,0,0,1,34,58.288Z" fill="#000000" style="fill: rgb(117, 117, 117);"></path></g></svg>