<!-- icon666.com - MILLIONS vector ICONS FREE --><svg viewBox="0 0 32 32" xmlns="http://www.w3.org/2000/svg"><g id="Layer_57" data-name="Layer 57"><path d="m24.21 3.92-18.85 7.08a3 3 0 0 0 .4 5.73l7.13 1.6a1 1 0 0 1 .76.76l1.58 7.09a2.94 2.94 0 0 0 2.72 2.34h.23a2.94 2.94 0 0 0 2.82-1.9l7.07-18.83a3 3 0 0 0 -3.87-3.87zm2 3.16-7.12 18.83a1 1 0 0 1 -1.91-.14l-1.58-7.08a3 3 0 0 0 -2.27-2.27l-7.13-1.6a1 1 0 0 1 -.13-1.91l18.84-7.12a1 1 0 0 1 .36-.07 1 1 0 0 1 .73.28 1 1 0 0 1 .2 1.08z"></path></g></svg>